<svg width="34" height="34" viewBox="0 0 34 34" fill="none" xmlns="http://www.w3.org/2000/svg">
<path d="M23.7979 3.14559C25.6336 3.15107 27.3924 3.8827 28.6904 5.18068C29.9884 6.47867 30.72 8.23754 30.7255 10.0732V23.9268C30.72 25.7625 29.9884 27.5213 28.6904 28.8193C27.3924 30.1173 25.6336 30.8489 23.7979 30.8544H9.94426C8.10864 30.8489 6.34976 30.1173 5.05178 28.8193C3.75379 27.5213 3.02216 25.7625 3.01668 23.9268V10.0732C3.02216 8.23754 3.75379 6.47867 5.05178 5.18068C6.34976 3.8827 8.10864 3.15107 9.94426 3.14559H23.7979ZM23.7979 0.375H9.94426C4.61016 0.375 0.246094 4.73906 0.246094 10.0732V23.9268C0.246094 29.2609 4.61016 33.625 9.94426 33.625H23.7979C29.132 33.625 33.4961 29.2609 33.4961 23.9268V10.0732C33.4961 4.73906 29.132 0.375 23.7979 0.375Z" fill="#CCCCCC"/>
</svg>
