<svg width="18" height="24" viewBox="0 0 18 24" fill="none" xmlns="http://www.w3.org/2000/svg">
<path d="M9.00043 0C4.23737 0 0.362305 3.87502 0.362305 8.63812C0.362305 10.5878 0.917257 12.7145 2.01174 14.9591C2.09682 15.1336 2.30729 15.2061 2.4818 15.121C2.65632 15.0359 2.72884 14.8254 2.64371 14.6509C1.59648 12.5032 1.06543 10.4802 1.06543 8.63812C1.06543 4.26272 4.62507 0.703125 9.00043 0.703125C13.3758 0.703125 16.9354 4.26272 16.9354 8.63812C16.9354 10.3606 16.4663 12.096 15.7793 13.7143L15.1603 13.0954C15.3167 12.7859 15.2663 12.3977 15.008 12.1395L14.3341 11.4656C15.0128 10.1924 15.2159 8.70502 14.8725 7.24866C14.8279 7.05966 14.6387 6.94266 14.4496 6.98719C14.2606 7.03176 14.1435 7.22109 14.1881 7.41005C14.6158 9.22345 14.0856 11.0915 12.77 12.4072C11.7306 13.4465 10.3658 13.9662 9.00047 13.966C7.63547 13.9659 6.27005 13.4463 5.23093 12.4072C3.15296 10.3287 3.15296 6.94692 5.23093 4.86853C7.30946 2.79 10.6915 2.79005 12.77 4.86853C13.1034 5.20195 13.3908 5.57677 13.6242 5.98256C13.721 6.15089 13.9359 6.20887 14.1042 6.11208C14.2725 6.01533 14.3305 5.80041 14.2337 5.63208C13.9696 5.1727 13.6444 4.74853 13.2672 4.37137C10.9146 2.01872 7.08647 2.01872 4.73377 4.37137C2.38177 6.72389 2.38177 10.5517 4.73377 12.9043C5.9101 14.0806 7.45529 14.6688 9.00047 14.6688C9.97299 14.6688 10.9455 14.4356 11.826 13.9696L12.5019 14.6456C12.6628 14.8065 12.874 14.8868 13.0853 14.8868C13.2133 14.8868 13.3411 14.8568 13.4578 14.7979L14.646 15.9861C14.0715 16.993 13.4522 17.9156 12.8682 18.7122C11.2435 20.9282 9.60015 22.5835 9.00052 23.1636C8.18387 22.373 5.42986 19.5851 3.40337 16.0761C3.30624 15.908 3.09127 15.8504 2.92308 15.9475C2.75494 16.0446 2.69738 16.2596 2.79446 16.4278C5.2411 20.6642 8.72827 23.8759 8.76319 23.9078C8.83036 23.9692 8.9154 23.9999 9.00043 23.9999C9.08546 23.9999 9.17049 23.9692 9.23766 23.9078C9.25861 23.8886 11.3588 21.9576 13.4271 19.1389C14.6449 17.4792 15.6161 15.8383 16.3137 14.2618C17.1928 12.2751 17.6385 10.383 17.6385 8.63798C17.6385 3.87502 13.7635 0 9.00043 0V0ZM13.0853 14.1841C13.0665 14.1841 13.0302 14.1795 12.9991 14.1484L12.444 13.5933C12.7336 13.392 13.0092 13.1623 13.2672 12.9044C13.5238 12.6478 13.7533 12.3722 13.9561 12.082L14.5109 12.6367C14.5419 12.6678 14.5466 12.7041 14.5466 12.7229C14.5466 12.7418 14.5419 12.7781 14.5109 12.8092L13.1716 14.1485C13.1404 14.1795 13.1041 14.1841 13.0853 14.1841ZM13.9843 14.3301L14.6925 13.6219L15.4718 14.4012C15.321 14.7217 15.1628 15.0366 14.9991 15.3449L13.9843 14.3301Z" fill="#8F511D"/>
</svg>
