<svg width="30" height="24" viewBox="0 0 30 24" fill="none" xmlns="http://www.w3.org/2000/svg">
<path d="M27.1052 2.4381L27.3613 2.18203H26.9992H3.00932H2.64497L2.90371 2.43855L14.9503 14.3819L15.0564 14.487L15.162 14.3814L27.1052 2.4381ZM1.60781 20.4251V20.7872L1.86388 20.5311L10.3294 12.0656L10.436 11.9591L10.329 11.853L1.86342 3.46002L1.60781 3.2066V3.56654V20.4251ZM2.8947 21.5619L2.63863 21.818H3.00076H26.9992H27.3614L27.1053 21.5619L18.6803 13.1369L18.5742 13.0308L18.4682 13.1369L15.574 16.031L15.574 16.031C15.2902 16.3148 14.8304 16.3158 14.5455 16.0332L14.4398 16.1398L14.5455 16.0332L11.5773 13.0905L11.4712 12.9854L11.3656 13.091L2.8947 21.5619ZM28.1361 20.5311L28.3922 20.7871V20.425V3.57492V3.21279L28.1361 3.46886L19.7111 11.8939L19.605 12L19.7111 12.1061L28.1361 20.5311ZM2.63672 0.724219H27.3633C28.7375 0.724219 29.85 1.84501 29.85 3.21094V20.7891C29.85 22.1632 28.7292 23.2758 27.3633 23.2758H2.63672C1.26255 23.2758 0.15 22.155 0.15 20.7891V3.21094C0.15 1.84047 1.26744 0.724219 2.63672 0.724219Z" fill="black" stroke="white" stroke-width="0.3"/>
</svg>
