<svg width="29" height="27" viewBox="0 0 29 27" fill="none" xmlns="http://www.w3.org/2000/svg">
<path d="M24.2239 18.5324C22.7694 16.875 21.7425 16.0313 21.7425 11.4618C21.7425 7.27735 19.4474 5.78654 17.5584 5.0625C17.3075 4.96652 17.0713 4.74609 16.9949 4.50615C16.6635 3.45621 15.7346 2.53125 14.4999 2.53125C13.2651 2.53125 12.3356 3.45674 12.0077 4.50721C11.9312 4.74979 11.695 4.96652 11.4441 5.0625C9.55286 5.7876 7.26005 7.27313 7.26005 11.4618C7.25722 16.0313 6.23032 16.875 4.77579 18.5324C4.17313 19.219 4.70102 20.25 5.75511 20.25H23.2503C24.2987 20.25 24.8232 19.2159 24.2239 18.5324Z" stroke="black" stroke-linecap="round" stroke-linejoin="round"/>
<path d="M18.125 20.25V21.0938C18.125 21.9889 17.7431 22.8473 17.0633 23.4802C16.3834 24.1132 15.4614 24.4688 14.5 24.4688C13.5386 24.4688 12.6166 24.1132 11.9367 23.4802C11.2569 22.8473 10.875 21.9889 10.875 21.0938V20.25" stroke="black" stroke-linecap="round" stroke-linejoin="round"/>
</svg>
