<svg width="25" height="23" viewBox="0 0 25 23" fill="none" xmlns="http://www.w3.org/2000/svg">
<path d="M23.0167 2.54385C21.7226 1.14024 19.9469 0.367188 18.0162 0.367188C16.5731 0.367188 15.2515 0.823425 14.0881 1.72312C13.501 2.17726 12.969 2.73287 12.5 3.38137C12.0312 2.73306 11.499 2.17726 10.9118 1.72312C9.74846 0.823425 8.42686 0.367188 6.98376 0.367188C5.05314 0.367188 3.27721 1.14024 1.98307 2.54385C0.704384 3.93107 0 5.82621 0 7.88042C0 9.99472 0.787926 11.9301 2.47955 13.9714C3.99284 15.7973 6.16779 17.6508 8.68645 19.7972C9.54647 20.5302 10.5213 21.361 11.5335 22.246C11.801 22.4802 12.1441 22.6092 12.5 22.6092C12.8557 22.6092 13.199 22.4802 13.4661 22.2464C14.4783 21.3612 15.4537 20.53 16.3141 19.7966C18.8324 17.6506 21.0073 15.7973 22.5206 13.9712C24.2123 11.9301 25 9.99472 25 7.88023C25 5.82621 24.2956 3.93107 23.0167 2.54385Z" fill="#F1C644"/>
</svg>
