<svg width="25" height="26" viewBox="0 0 25 26" fill="none" xmlns="http://www.w3.org/2000/svg">
<path d="M10.7954 3.25C9.27835 3.25 7.79535 3.71786 6.53396 4.59441C5.27257 5.47095 4.28943 6.71683 3.70888 8.17447C3.12832 9.63212 2.97642 11.2361 3.27239 12.7835C3.56835 14.3309 4.29889 15.7523 5.37161 16.868C6.44434 17.9836 7.81108 18.7434 9.29899 19.0512C10.7869 19.359 12.3292 19.201 13.7308 18.5972C15.1323 17.9934 16.3303 16.971 17.1731 15.6591C18.016 14.3473 18.4658 12.805 18.4658 11.2272C18.4657 9.11158 17.6575 7.08262 16.2191 5.58662C14.7806 4.09063 12.8297 3.25013 10.7954 3.25V3.25Z" stroke="black" stroke-miterlimit="10"/>
<path d="M16.5181 17.1788L21.875 22.75" stroke="black" stroke-width="2" stroke-miterlimit="10" stroke-linecap="round"/>
</svg>
