<svg width="25" height="25" viewBox="0 0 25 25" fill="none" xmlns="http://www.w3.org/2000/svg">
<g clip-path="url(#clip0)">
<path d="M24.5119 12.5C24.5119 19.1339 19.1339 24.5119 12.5 24.5119C5.86605 24.5119 0.488281 19.1339 0.488281 12.5C0.488281 5.86605 5.86605 0.488281 12.5 0.488281C19.1339 0.488281 24.5119 5.86605 24.5119 12.5Z" fill="#CBE558"/>
<path d="M16.6832 6.82849L10.8645 12.6472L8.3174 10.1002L5.55518 12.8624L8.10225 15.4095L10.8645 18.1715L19.4453 9.59071L16.6832 6.82849Z" fill="white"/>
<path d="M10.8645 18.6598C10.735 18.6598 10.6108 18.6083 10.5192 18.5167L5.20995 13.2076C5.01921 13.0169 5.01921 12.7077 5.20995 12.517L7.97198 9.75494C8.16271 9.5642 8.47189 9.5642 8.66263 9.75494L10.8645 11.9568L16.3378 6.48326C16.4294 6.39171 16.5537 6.34021 16.6832 6.34021C16.8125 6.34021 16.9369 6.39171 17.0285 6.48326L19.7905 9.24548C19.9812 9.43603 19.9812 9.74521 19.7905 9.93594L11.2097 18.5169C11.1181 18.6085 10.994 18.6598 10.8645 18.6598ZM6.24583 12.8624L10.8645 17.481L18.7548 9.59071L16.6832 7.51895L11.2097 12.9925C11.019 13.1832 10.7098 13.1832 10.5192 12.9925L8.3174 10.7906L6.24583 12.8624Z" fill="black"/>
<path d="M12.4969 25C12.178 25 11.8587 24.9878 11.5389 24.9634C8.56838 24.7356 5.77068 23.4484 3.66116 21.339C1.30024 18.9779 0 15.839 0 12.5C0 9.16119 1.30024 6.02207 3.66116 3.66116C6.02207 1.30024 9.16119 0 12.5 0C15.839 0 18.9779 1.30024 21.339 3.66116C23.4484 5.77068 24.7356 8.56838 24.9634 11.5389C25.1886 14.4772 24.3704 17.4059 22.6595 19.7859C22.5021 20.0048 22.197 20.0546 21.978 19.8973C21.759 19.7399 21.7093 19.4347 21.8666 19.2158C25.1736 14.6158 24.6613 8.36468 20.6484 4.35162C16.1554 -0.141335 8.84476 -0.141335 4.35181 4.35162C-0.141335 8.84476 -0.141335 16.1552 4.35181 20.6484C8.36468 24.6611 14.616 25.1736 19.216 21.8664C19.4349 21.7091 19.7399 21.759 19.8975 21.978C20.0548 22.197 20.0048 22.5019 19.7859 22.6595C17.6649 24.1842 15.1079 25 12.4969 25Z" fill="black"/>
<path d="M20.9937 21.4821C20.8651 21.4821 20.7392 21.4298 20.6484 21.339C20.5576 21.248 20.5054 21.1221 20.5054 20.9938C20.5054 20.8652 20.5576 20.7393 20.6484 20.6485C20.7392 20.5578 20.8651 20.5055 20.9937 20.5055C21.122 20.5055 21.2479 20.5578 21.3389 20.6485C21.4297 20.7393 21.4819 20.8652 21.4819 20.9938C21.4819 21.1221 21.4297 21.248 21.3389 21.339C21.2479 21.4298 21.122 21.4821 20.9937 21.4821Z" fill="black"/>
</g>
<defs>
<clipPath id="clip0">
<rect width="25" height="25" fill="white"/>
</clipPath>
</defs>
</svg>
